<?xml version="1.0" encoding="UTF-8" standalone="no"?>
<!-- Created with Inkscape (http://www.inkscape.org/) -->

<svg
   version="1.1"
   id="svg2"
   width="1000"
   height="666.66669"
   viewBox="0 0 1000 666.66669"
   sodipodi:docname="3195240.eps"
   xmlns:inkscape="http://www.inkscape.org/namespaces/inkscape"
   xmlns:sodipodi="http://sodipodi.sourceforge.net/DTD/sodipodi-0.dtd"
   xmlns="http://www.w3.org/2000/svg"
   xmlns:svg="http://www.w3.org/2000/svg">
  <defs
     id="defs6">
    <linearGradient
       x1="0"
       y1="0"
       x2="1"
       y2="0"
       gradientUnits="userSpaceOnUse"
       gradientTransform="matrix(-1355.66,2599.19,-2599.19,-1355.66,3573.88,2837.68)"
       spreadMethod="pad"
       id="linearGradient18">
      <stop
         style="stop-opacity:1;stop-color:#facac5"
         offset="0"
         id="stop14" />
      <stop
         style="stop-opacity:1;stop-color:#fde0e2"
         offset="1"
         id="stop16" />
    </linearGradient>
    <linearGradient
       x1="0"
       y1="0"
       x2="1"
       y2="0"
       gradientUnits="userSpaceOnUse"
       gradientTransform="matrix(-522.506,-1707.71,-1707.71,522.506,3955.66,3542.12)"
       spreadMethod="pad"
       id="linearGradient28">
      <stop
         style="stop-opacity:1;stop-color:#f8a783"
         offset="0"
         id="stop24" />
      <stop
         style="stop-opacity:1;stop-color:#cc7052"
         offset="1"
         id="stop26" />
    </linearGradient>
    <linearGradient
       x1="0"
       y1="0"
       x2="1"
       y2="0"
       gradientUnits="userSpaceOnUse"
       gradientTransform="matrix(526.338,0,0,-526.338,2190.78,1517.98)"
       spreadMethod="pad"
       id="linearGradient36">
      <stop
         style="stop-opacity:1;stop-color:#f8a783"
         offset="0"
         id="stop32" />
      <stop
         style="stop-opacity:1;stop-color:#cc7052"
         offset="1"
         id="stop34" />
    </linearGradient>
    <linearGradient
       x1="0"
       y1="0"
       x2="1"
       y2="0"
       gradientUnits="userSpaceOnUse"
       gradientTransform="matrix(218.457,0,0,-218.457,4994.5,1147.81)"
       spreadMethod="pad"
       id="linearGradient114">
      <stop
         style="stop-opacity:1;stop-color:#f8a783"
         offset="0"
         id="stop110" />
      <stop
         style="stop-opacity:1;stop-color:#cc7052"
         offset="1"
         id="stop112" />
    </linearGradient>
    <linearGradient
       x1="0"
       y1="0"
       x2="1"
       y2="0"
       gradientUnits="userSpaceOnUse"
       gradientTransform="matrix(592.842,0,0,-592.842,3468.92,2071.62)"
       spreadMethod="pad"
       id="linearGradient176">
      <stop
         style="stop-opacity:1;stop-color:#f8a783"
         offset="0"
         id="stop172" />
      <stop
         style="stop-opacity:1;stop-color:#cc7052"
         offset="1"
         id="stop174" />
    </linearGradient>
    <linearGradient
       x1="0"
       y1="0"
       x2="1"
       y2="0"
       gradientUnits="userSpaceOnUse"
       gradientTransform="matrix(-312.232,-1006.78,-1006.78,312.232,6730.69,2916.88)"
       spreadMethod="pad"
       id="linearGradient208">
      <stop
         style="stop-opacity:1;stop-color:#f8a783"
         offset="0"
         id="stop204" />
      <stop
         style="stop-opacity:1;stop-color:#cc7052"
         offset="1"
         id="stop206" />
    </linearGradient>
    <linearGradient
       x1="0"
       y1="0"
       x2="1"
       y2="0"
       gradientUnits="userSpaceOnUse"
       gradientTransform="matrix(605.723,0,0,-605.723,5097.03,1319.06)"
       spreadMethod="pad"
       id="linearGradient280">
      <stop
         style="stop-opacity:1;stop-color:#f8a783"
         offset="0"
         id="stop276" />
      <stop
         style="stop-opacity:1;stop-color:#cc7052"
         offset="1"
         id="stop278" />
    </linearGradient>
    <linearGradient
       x1="0"
       y1="0"
       x2="1"
       y2="0"
       gradientUnits="userSpaceOnUse"
       gradientTransform="matrix(210.275,-707.294,-707.294,-210.275,850.986,2670.06)"
       spreadMethod="pad"
       id="linearGradient292">
      <stop
         style="stop-opacity:1;stop-color:#f8a783"
         offset="0"
         id="stop288" />
      <stop
         style="stop-opacity:1;stop-color:#cc7052"
         offset="1"
         id="stop290" />
    </linearGradient>
    <linearGradient
       x1="0"
       y1="0"
       x2="1"
       y2="0"
       gradientUnits="userSpaceOnUse"
       gradientTransform="matrix(-210.225,-659.092,-659.092,210.225,2683.43,2199.58)"
       spreadMethod="pad"
       id="linearGradient336">
      <stop
         style="stop-opacity:1;stop-color:#f8a783"
         offset="0"
         id="stop332" />
      <stop
         style="stop-opacity:1;stop-color:#cc7052"
         offset="1"
         id="stop334" />
    </linearGradient>
  </defs>
  <sodipodi:namedview
     id="namedview4"
     bordercolor="#000000"
     borderopacity="0.25"
     inkscape:showpageshadow="2"
     inkscape:pageopacity="0.0"
     inkscape:pagecheckerboard="0"
     inkscape:deskcolor="#d1d1d1" />
  <g
     id="g8"
     inkscape:groupmode="layer"
     inkscape:label="ink_ext_XXXXXX"
     transform="matrix(1.3333333,0,0,-1.3333333,0,666.66667)">
    <g
       id="g10"
       transform="scale(0.1)">
      <path
         d="M 0,0 H 7500 V 5000 H 0 V 0"
         style="fill:#92dad5;fill-opacity:1;fill-rule:evenodd;stroke:none"
         id="path12" />
      <path
         d="M 7499.99,0 H 0.0117188 V 5000 H 7499.99 V 0"
         style="fill:url(#linearGradient18);fill-opacity:1;fill-rule:evenodd;stroke:none"
         id="path20" />
      <path
         d="M 7500,0 H 0 V 5000 H 7500 V 0"
         style="fill:#ffffff;fill-opacity:1;fill-rule:evenodd;stroke:none"
         id="path22" />
      <path
         d="m 3945.31,2709.87 c -110.3,-169.71 -252.5,-333.46 -252.5,-333.46 l -169.72,228.23 215.55,257.24 c 30.04,54 29.95,118.74 51.31,214.78 19.8,89 50.48,197.17 65.98,272.18 l -0.05,0.53 c 1.92,23.29 2.79,43.28 2.02,58.39 -6.31,17.23 -13,29.72 -21.68,43.89 -18.14,29.6 -77.27,73.38 -100.27,158.98 -22.99,85.61 -23.74,100.59 -7.51,99.3 16.23,-1.28 43.06,-38.19 56.28,-66.6 13.19,-28.42 39.01,-22.42 39.01,-22.42 0,0 5.58,190.17 9.99,244.83 4.41,54.65 39.53,52.32 43.92,1.65 4.38,-50.67 7.38,-128.87 18.89,-131.62 11.54,-2.77 3.72,167.65 13.89,199.16 10.17,31.52 36.11,22.64 43.62,-27.95 7.49,-50.59 3.38,-160.58 10.12,-157.85 6.76,2.73 25.05,151.55 36.27,158.43 48.68,29.84 16.69,-168.03 18.66,-190.76 0,0 15.38,57.51 34.73,81.63 8.94,11.18 21.85,4.14 22.77,-10.95 3.45,-56.53 -47.07,-251.76 -50.21,-262.63 -4.07,-14.18 2.36,-67.37 8.96,-112.51 l 2.72,0.95 c 0.42,-9.81 1.05,-20.13 1.84,-30.92 1.55,-9.77 2.94,-18.32 4.03,-24.89 -0.64,-0.32 -1.29,-0.67 -1.96,-1.02 10.97,-128.48 35.15,-311.47 -6.77,-490.26 -13.21,-56.24 -45.52,-120.33 -89.89,-156.33"
         style="fill:url(#linearGradient28);fill-opacity:1;fill-rule:evenodd;stroke:none"
         id="path30" />
      <path
         d="m 2289.88,1909.7 c -32.51,-96.87 -50.55,-148.37 -76.19,-205.14 -123.18,-272.79 279.88,-446.59 503.42,-571.81 0,0 -36.36,-24.52 -39.61,21.74 -3.27,46.25 -38.44,289.12 -152.69,389.54 -114.24,100.43 6.3,139.91 6.3,139.91 l -241.23,225.76"
         style="fill:url(#linearGradient36);fill-opacity:1;fill-rule:evenodd;stroke:none"
         id="path38" />
      <path
         d="m 2806.01,1167.39 c -60.79,118.13 -58.16,1192.9 -28.41,1210.49 51.99,30.75 534.82,52.23 573.21,-34.73 73.55,-166.68 216.34,-760.6 162.48,-1151.2 -6.87,-49.88 -153.69,-138.26 -327.46,-149.81 -157.02,-10.42 -319.05,7.1 -379.82,125.25"
         style="fill:#90b0cd;fill-opacity:1;fill-rule:evenodd;stroke:none"
         id="path40" />
      <path
         d="m 3302.08,2840.56 c -15.31,-93.17 -64.16,-237.95 -72.91,-321.3 -3.35,-31.8 84.7,-29.81 76.08,-45.35 -42.16,-76 -59.87,-236.89 -231.27,-245.07 -213.8,-10.19 -228.48,146.3 -248.96,218.93 -5.88,20.88 46.32,16.93 44.11,38.94 -5.44,54.1 -85.13,179.42 -112.45,226.13 -108.58,185.6 545.4,127.72 545.4,127.72"
         style="fill:#da6c4e;fill-opacity:1;fill-rule:evenodd;stroke:none"
         id="path42" />
      <path
         d="m 2639.68,3068.31 c -22.38,68 -119.36,63.77 -116.43,-9.31 2.92,-73.09 64.03,-207.49 132.34,-166.55 68.32,40.95 -15.91,175.86 -15.91,175.86"
         style="fill:#f8a883;fill-opacity:1;fill-rule:evenodd;stroke:none"
         id="path44" />
      <path
         d="m 2622.66,3050.84 c 16.91,-42.42 19.36,-95.43 -5.39,-101.06 -19.97,-4.54 -60.27,76.26 -58.27,116.97 1.77,36.22 46.73,26.55 63.66,-15.91"
         style="fill:#da6c4e;fill-opacity:1;fill-rule:evenodd;stroke:none"
         id="path46" />
      <path
         d="m 3431.36,3161.86 c 83.87,45.86 158.59,-18.5 90.02,-138.24 -68.58,-119.75 -130.44,-74.01 -130.44,-74.01 -33.58,-192.42 -136.17,-361.44 -334.73,-398.04 -231.18,-42.64 -398.96,207.44 -410.65,394.35 -2.57,41.09 -11.09,85.61 -13.4,131.79 -3.38,67.5 0.18,137.68 2.58,198.45 3.2,81.22 37.72,151.68 65.39,170 12.61,8.35 50.35,61.11 100.95,64.98 163.56,12.51 460.96,-43.62 474.06,-64.59 17.16,-27.47 64.52,-208.8 64.52,-208.8 l 56.69,-132.97 35.01,57.08"
         style="fill:#f8a883;fill-opacity:1;fill-rule:evenodd;stroke:none"
         id="path48" />
      <path
         d="m 2866.38,3131.52 c 37.12,-55.4 15.46,-97.26 -49.18,-99.43 -50.97,-1.72 -110.91,22.38 -66.67,85.07 18.19,25.77 73.7,30.21 115.85,14.36"
         style="fill:#ffffff;fill-opacity:1;fill-rule:evenodd;stroke:none"
         id="path50" />
      <path
         d="m 3195.53,3167.97 c 13.4,-19.98 28.83,-63.85 2.1,-89.21 -26.73,-25.37 -77.8,-13.72 -86.28,0.36 -8.47,14.09 13.29,115.51 84.18,88.85"
         style="fill:#ffffff;fill-opacity:1;fill-rule:evenodd;stroke:none"
         id="path52" />
      <path
         d="m 3067.56,3113.13 c 18.47,38.56 50.16,90.17 102.44,75.45 32.97,-9.26 47.19,-39.13 55.23,-69.25 l -10.52,16.09 c -49.45,73.42 -98.07,41.66 -127.56,-28.82 -1.8,-5.41 -7.66,-8.33 -13.07,-6.53 -5.41,1.8 -8.32,7.65 -6.52,13.06"
         style="fill:#321511;fill-opacity:1;fill-rule:evenodd;stroke:none"
         id="path54" />
      <path
         d="m 2877.02,3088.53 c -7.27,49.6 -107.22,81.2 -138.76,6.47 -5.25,-12.44 -9.13,-31.19 -12.34,-45.41 -14.08,137.69 154.91,128.17 171.67,40.76 0.5,-5.69 -3.69,-10.7 -9.37,-11.2 -5.68,-0.5 -10.7,3.7 -11.2,9.38"
         style="fill:#321511;fill-opacity:1;fill-rule:evenodd;stroke:none"
         id="path56" />
      <path
         d="m 3139.01,3183.97 c -27.49,-2.94 -46.84,-32.61 -43.22,-66.23 3.61,-33.63 28.83,-58.5 56.31,-55.54 27.48,2.96 46.84,32.61 43.23,66.24 -3.62,33.63 -28.83,58.49 -56.32,55.53"
         style="fill:#321511;fill-opacity:1;fill-rule:evenodd;stroke:none"
         id="path58" />
      <path
         d="m 2804.27,3149.06 c -27.49,-2.96 -46.83,-32.61 -43.23,-66.24 8.63,-80.17 108.16,-69.47 99.55,10.71 -3.62,33.62 -28.83,58.49 -56.32,55.53"
         style="fill:#321511;fill-opacity:1;fill-rule:evenodd;stroke:none"
         id="path60" />
      <path
         d="m 3063.49,3328.58 c -1.27,-57.59 -4.95,-74.77 49.3,-71.88 54.24,2.88 139.05,-15.59 139.05,-15.59 0,0 -36.53,104.28 -188.35,87.47"
         style="fill:#321511;fill-opacity:1;fill-rule:evenodd;stroke:none"
         id="path62" />
      <path
         d="m 2856.23,3291.01 c 4.33,-33.96 8.62,-66.84 -22.17,-70 -30.79,-3.17 -119.11,-7.2 -119.11,-7.2 0,0 11.84,60.08 141.28,77.2"
         style="fill:#321511;fill-opacity:1;fill-rule:evenodd;stroke:none"
         id="path64" />
      <path
         d="m 3184.76,3166.88 c -9.54,6.38 -19.48,8.21 -22.22,4.12 -2.74,-4.1 2.77,-12.59 12.31,-18.95 9.53,-6.37 19.48,-8.21 22.22,-4.11 2.73,4.1 -2.78,12.58 -12.31,18.94"
         style="fill:#ffffff;fill-opacity:1;fill-rule:evenodd;stroke:none"
         id="path66" />
      <path
         d="m 2852.1,3122.55 c -9.53,6.37 -19.48,8.21 -22.21,4.12 -2.74,-4.1 2.77,-12.59 12.3,-18.95 9.54,-6.37 19.48,-8.22 22.22,-4.12 2.73,4.11 -2.77,12.58 -12.31,18.95"
         style="fill:#ffffff;fill-opacity:1;fill-rule:evenodd;stroke:none"
         id="path68" />
      <path
         d="m 2921.55,2927.29 c 44.15,-11.09 86.33,-3.91 110.12,3.22 23.79,7.13 2.57,-63.71 -50.26,-70.52 -52.84,-6.81 -106.11,63.76 -59.86,67.3"
         style="fill:#da6c4e;fill-opacity:1;fill-rule:evenodd;stroke:none"
         id="path70" />
      <path
         d="m 2914.89,2820.43 c 36.98,-3.75 124,-2.77 175.97,36.89 51.98,39.65 43.2,-115.64 -56.79,-127.01 -99.99,-11.37 -144.26,53.9 -119.18,90.12"
         style="fill:#ffffff;fill-opacity:1;fill-rule:evenodd;stroke:none"
         id="path72" />
      <path
         d="m 2970.76,2980.82 c 1.52,-1.44 2.98,-5.63 3.52,-10.46 0.82,-7.19 -0.49,-19.75 -4.92,-25.39 -4.77,-6.06 -12.79,-4.87 -15.47,-2.32 -4.28,4.02 2.95,11.01 7.5,19.63 4.97,9.4 7.58,20.23 9.37,18.54"
         style="fill:#ffffff;fill-opacity:1;fill-rule:evenodd;stroke:none"
         id="path74" />
      <path
         d="m 3424.16,3088.75 c -17.51,-37.86 -17.77,-85.93 11.16,-92.04 23.34,-4.93 66.06,66.85 61.77,103.93 -3.82,32.98 -55.39,26.01 -72.93,-11.89"
         style="fill:#da6c4e;fill-opacity:1;fill-rule:evenodd;stroke:none"
         id="path76" />
      <path
         d="m 3063.79,2703.43 c -23.38,-12.52 -48.23,-14.43 -62.68,-13.77 -14.45,0.66 7.57,-36.37 38.39,-32.73 30.81,3.64 50.92,51.05 24.29,46.5"
         style="fill:#da6c4e;fill-opacity:1;fill-rule:evenodd;stroke:none"
         id="path78" />
      <path
         d="m 2964.56,2873.83 c -13.7,6.3 -51.17,21.96 -58.95,39.12 l -2.01,17.37 c 36.32,38.59 44.08,51.34 52.9,101.29 2.22,12.51 1.05,8.73 4.72,17.36 14.08,-45.81 -9.47,-89.91 -36.76,-125.33 18.02,-16.74 21.81,-15.8 47.68,-25.77 6.65,-2.09 10.34,-9.18 8.24,-15.81 -2.1,-6.64 -9.18,-10.33 -15.82,-8.23"
         style="fill:#321511;fill-opacity:1;fill-rule:evenodd;stroke:none"
         id="path80" />
      <path
         d="m 2903.82,1732.15 c 21.9,-407.88 29.53,-338.31 -91.2,-696.61 -40.93,-121.45 -303.23,163.18 -292.58,175.05 l 79.56,88.81 15.11,107.76 c 0,0 -5.26,63.38 -3.41,82.89 0.52,5.47 12.73,22.93 15.53,41.93 2.89,19.5 -8.55,30.52 -1.45,44.6 5.45,10.81 10.64,11.1 13.26,37.99 -0.28,53.22 -9.57,109.09 -30.49,170.29 -33.62,-49.28 -26.2,-85.17 -69.99,-139.35 -146.78,81.64 -247.18,175.12 -310.67,265.88 0,0 264.94,413.53 296.31,445.13 23.76,23.93 199.45,92.14 285.97,106.36 4.39,0.71 16.79,-85.47 30.33,-186.41 27.08,-201.79 61.36,-500.2 63.72,-544.32"
         style="fill:#2e4e76;fill-opacity:1;fill-rule:evenodd;stroke:none"
         id="path82" />
      <path
         d="m 3251.82,1823.75 c 8.33,-95.59 17.1,-162.5 19.18,-214.96 1.03,-26.03 -11.5,-133.1 2.95,-200.66 37.2,-173.88 126.38,-375.73 145.12,-409.732 159.41,31.382 257.02,112.222 279.86,237.152 -37.09,53.72 -89.33,181.72 -96.16,306.8 -6.52,17.25 -26.17,30.57 -23.06,51.39 6.81,45.58 -35.93,18.86 -27.34,74.63 4.16,27 11.57,68.17 9.68,93.64 -5.61,76.1 -17.35,150.55 -19.86,218.08 -7.56,203.28 348.74,406.86 367.17,389.66 -17.07,122.37 -167.95,388.81 -244.11,441.21 -17.41,11.97 -136.9,-178.39 -271.32,-253.16 -59.05,-32.83 -91.54,-31.69 -133.91,-33.1 -11.97,-0.39 -12.87,-0.92 -21.19,-4.19 -9.98,-3.9 7.56,-634.32 12.99,-696.76"
         style="fill:#2e4e76;fill-opacity:1;fill-rule:evenodd;stroke:none"
         id="path84" />
      <path
         d="m 2631.16,3099.04 c 14.63,44.61 87.06,93.29 103.63,155.79 16.59,62.5 -10.83,176.79 116.35,135.7 127.18,-41.08 238.34,-38.09 318.28,-50.22 79.95,-12.13 182.73,-119.48 200.08,-205.43 17.35,-85.94 -81.04,279.99 -81.04,279.99 0,0 -187.96,56.17 -239.7,57.37 -51.74,1.2 -270.28,-12.57 -283.13,-13.48 -12.84,-0.9 -41.96,22.88 -57.62,-29.88 -15.65,-52.75 -116.86,-197.07 -76.85,-329.84"
         style="fill:#da6c4e;fill-opacity:1;fill-rule:evenodd;stroke:none"
         id="path86" />
      <path
         d="m 2637.01,2999.06 c 0,0 -30.16,80.64 39.47,184.03 76.24,113.2 33.11,181.66 68.13,216.32 15.34,15.2 48.92,29.34 86.45,16.48 166.26,-56.94 356.66,-5 464.11,-125.22 94.62,-105.89 87.34,-274.95 87.34,-274.95 25.53,55.67 30.69,98.11 50.17,147.14 76.69,193.03 104.1,352.18 -121.42,523.71 -162.53,123.63 -313.65,160.12 -417.73,109.22 -118.87,-58.13 -117.43,-96 -170.68,-123.49 -100.77,-52 -128.24,-71.78 -161.79,-133.6 -68.16,-125.6 -47.98,-315.82 75.95,-539.64"
         style="fill:#6c2716;fill-opacity:1;fill-rule:evenodd;stroke:none"
         id="path88" />
      <path
         d="m 2637,2999.06 c 0,0 -30.15,80.64 39.48,184.03 76.24,113.19 33.11,181.66 68.13,216.32 15.34,15.2 48.92,29.34 86.45,16.48 166.26,-56.94 356.66,-5 464.11,-125.22 94.62,-105.9 87.34,-274.95 87.34,-274.95 25.53,55.67 30.69,98.11 50.17,147.14 20.83,52.43 38,102.35 47.48,150.71 -61.69,-0.01 -128.39,51.43 -190.79,88.45 -87.6,51.94 -323.04,3.09 -426.69,53.88 -103.65,50.82 -136.45,58.2 -174.19,-47.76 -28.55,-80.18 -97.77,-107.76 -161.56,-101.89 11.95,-91.37 47.98,-195.06 110.07,-307.19"
         style="fill:#501c13;fill-opacity:1;fill-rule:evenodd;stroke:none"
         id="path90" />
      <path
         d="m 2675.3,3052.21 c -3.93,9.09 -5.21,20.92 -3.93,31.06 1.31,10.31 5.34,19.21 12.08,22.7 16.41,8.5 42.9,15.61 74.74,20.23 30.27,4.41 65.54,6.58 101.67,5.57 105.97,-2.93 74.21,-62.84 74.12,-63.02 l -8.12,4.16 c 0.07,0.13 25.12,47.23 -66.26,49.77 -35.54,0.99 -70.28,-1.17 -100.13,-5.5 -30.83,-4.48 -56.3,-11.27 -71.83,-19.32 -3.82,-1.98 -6.26,-8.2 -7.22,-15.7 -1.1,-8.7 -0.04,-18.75 3.25,-26.36 l -8.37,-3.59"
         style="fill:#321511;fill-opacity:1;fill-rule:evenodd;stroke:none"
         id="path92" />
      <path
         d="m 3277.2,3128.36 c 0.75,1.43 1.14,2.69 1.19,3.81 0.13,3.37 -3.2,6.37 -9.17,8.96 -7.31,3.19 -18.1,5.44 -31.27,6.84 -39.06,4.16 -97.77,0.6 -149.39,-8.36 -86.54,-15.04 -54.6,-58.98 -54.51,-59.1 l -7.46,-5.22 c -0.11,0.16 -40.41,55.76 60.46,73.29 52.38,9.1 112.05,12.69 151.83,8.46 14.02,-1.48 25.71,-3.97 33.98,-7.57 9.62,-4.18 14.95,-10 14.63,-17.66 -0.1,-2.48 -0.82,-5.06 -2.24,-7.71 l -8.05,4.26"
         style="fill:#321511;fill-opacity:1;fill-rule:evenodd;stroke:none"
         id="path94" />
      <path
         d="m 2573.6,3115.21 c -4.56,2.09 -6.57,7.49 -4.48,12.05 2.07,4.57 7.47,6.58 12.04,4.5 41.46,-19.01 92.69,-43.5 92.83,-43.58 2.7,-1.3 4.46,-3.75 4.99,-6.47 0.05,-0.26 17.01,-91.05 89.22,-103.79 4.2,-0.74 8.11,-1.31 11.74,-1.71 37.19,-4.1 70.23,4.25 95.49,22.73 25.22,18.44 42.86,47.14 49.35,83.83 0.68,3.9 1.22,7.63 1.62,11.21 0.47,4.46 4.1,7.82 8.43,8.1 l 84.96,6.79 c 4.62,0.36 8.71,-2.8 9.61,-7.22 h 0.01 c 0.07,-0.31 21.02,-105.61 111.67,-103.69 46.81,1 76.04,11.62 94.55,27.31 18.07,15.32 26.22,35.98 30.71,57.22 9.41,44.6 9.05,49.77 9.05,49.79 -0.34,4.7 2.96,8.83 7.52,9.62 l 160.99,41.87 c 4.86,1.25 9.83,-1.68 11.08,-6.54 1.25,-4.87 -1.69,-9.83 -6.55,-11.08 l -155.55,-40.46 c -0.98,-7.41 -3.29,-21.36 -8.7,-46.95 -5.19,-24.64 -14.88,-48.81 -36.78,-67.37 -21.48,-18.21 -54.38,-30.51 -105.9,-31.61 -89.61,-1.89 -120.51,83.69 -127.96,110.36 l -70.02,-5.59 c -0.25,-1.7 -0.52,-3.34 -0.8,-4.93 -7.32,-41.49 -27.54,-74.15 -56.52,-95.35 -28.91,-21.14 -66.36,-30.72 -108.2,-26.13 -4.51,0.5 -8.83,1.12 -12.97,1.85 -74.08,13.07 -98.06,93.53 -102.94,113.69 -13.03,6.21 -55.46,26.42 -88.49,41.55"
         style="fill:#321511;fill-opacity:1;fill-rule:evenodd;stroke:none"
         id="path96" />
      <path
         d="m 2871.47,2505.85 c 4.42,-94.94 38.82,-915.66 38.82,-915.66 l -166.6,540.03 69.12,105.5 -128.33,64.66 c 0,0 102.21,194.11 186.99,205.47"
         style="fill:#426386;fill-opacity:1;fill-rule:evenodd;stroke:none"
         id="path98" />
      <path
         d="m 3229.14,2542.33 c 9.9,-311.91 14.95,-637.61 41.73,-952.31 l 135,586.81 -83.22,94.79 118,81.99 c 0,0 -125.97,189.36 -211.51,188.72"
         style="fill:#426386;fill-opacity:1;fill-rule:evenodd;stroke:none"
         id="path100" />
      <path
         d="m 2606.01,1781.64 c -6.32,38.14 -27.47,150.78 -27.47,150.78 0,0 -40.91,-135.02 -79.07,-218.88 -5.95,-13.1 -11.85,-24.93 -17.5,-34.83 10.18,-6.38 20.62,-12.73 31.32,-19.01 8.15,-4.77 16.43,-9.51 24.87,-14.19 42.83,53 36.66,88.49 67.85,136.13"
         style="fill:#213d5e;fill-opacity:1;fill-rule:evenodd;stroke:none"
         id="path102" />
      <path
         d="m 3856.34,2524.89 c -51.33,-106.25 -200.62,-223.61 -267.82,-288.13 -53.99,-51.83 -53.29,-144.49 -44.33,-222.74 29.09,191.36 347.75,371.97 365.17,355.73 -5.62,40.34 -25.79,96.32 -53.02,155.14"
         style="fill:#213d5e;fill-opacity:1;fill-rule:evenodd;stroke:none"
         id="path104" />
      <path
         d="m 5280.58,2018.52 c 75.99,-226.05 289.17,-453.4 180.97,-592.5 -27.32,-35.14 -21.93,-135.71 -109.17,-239.68 -29.81,-35.51 -69.54,-71.94 -109.87,-104.98 -18.54,-15.15 -151.5,98.01 -144.25,112.17 22.28,43.48 -4.87,185.6 38.92,284.62 6.03,13.63 9.06,31.13 4.11,52.11 -13.22,56.05 -52.92,130.56 -65.38,169.33 -19.91,61.97 -0.77,34.92 -0.77,34.92 l 205.44,284.01"
         style="fill:#3a9786;fill-opacity:1;fill-rule:evenodd;stroke:none"
         id="path106" />
      <path
         d="m 5143.76,1508.83 c 0.07,6.68 -0.68,13.82 -2.47,21.43 -13.22,56.05 -52.92,130.56 -65.38,169.33 -19.91,61.97 -0.77,34.92 -0.77,34.92 l 27.49,38 c 88.73,-192.92 97.97,-204.48 97.97,-204.48 0,0 -32.07,-27.96 -56.84,-59.2"
         style="fill:#327b7b;fill-opacity:1;fill-rule:evenodd;stroke:none"
         id="path108" />
      <path
         d="m 4994.5,1074.54 c 83.72,-30.59 143.29,-17.71 194.83,14.49 51.51,32.21 11.26,114.31 -48.31,144.91 -59.57,30.58 -143.31,-101.44 -146.52,-159.4"
         style="fill:url(#linearGradient114);fill-opacity:1;fill-rule:evenodd;stroke:none"
         id="path116" />
      <path
         d="m 4320.02,1119.43 c 169.39,-161.008 587.36,-57.96 622.14,23.19 34.78,81.14 -45.08,1116.75 -76,1132.2 -54.01,27.02 -472.76,53.19 -504.93,-36.26 -67.93,-188.83 -148.41,-721.35 -41.21,-1119.13"
         style="fill:#90b0cd;fill-opacity:1;fill-rule:evenodd;stroke:none"
         id="path118" />
      <path
         d="m 4382.94,2611.58 c 21.82,-93.07 19.53,-204.69 48.61,-270.61 6.21,-14.06 -52.13,-4.27 -42.12,-38.36 21.63,-73.83 48.99,-296.35 220.54,-292.42 213.99,4.92 196.7,254.29 212.04,329.16 4.41,21.51 -30.5,9.78 -29.83,32.19 1.63,55.07 7.11,249.37 31.09,298.53 95.27,195.32 -440.33,-58.49 -440.33,-58.49"
         style="fill:#f8a883;fill-opacity:1;fill-rule:evenodd;stroke:none"
         id="path120" />
      <path
         d="m 4364.68,2551.05 c 21,-58.36 45.53,-161.69 66.87,-210.08 2.26,-5.14 1.44,-7.84 -0.25,-9.68 72.77,-33.49 159.17,-33.76 201.77,-30.1 42.59,3.65 106.37,25.72 160.76,64.73 -0.04,0.51 -0.06,1.05 -0.05,1.59 1.63,54.77 27.42,223.85 51.62,272.76 -65.95,21.05 -292.45,-21.48 -391.42,-4.89 -33.71,5.65 -48.84,-6.8 -89.3,-84.33"
         style="fill:#da6c4e;fill-opacity:1;fill-rule:evenodd;stroke:none"
         id="path122" />
      <path
         d="m 4911.37,2980.3 c 3.87,61.83 83.08,110.13 96.61,48.31 13.52,-61.84 -34.78,-212.54 -71.49,-199.01 -36.71,13.52 -25.12,150.7 -25.12,150.7"
         style="fill:#f8a883;fill-opacity:1;fill-rule:evenodd;stroke:none"
         id="path124" />
      <path
         d="m 4929.21,2972.9 c -6.09,-40.09 4.33,-85.43 29.63,-83.89 20.38,1.24 39.8,79.65 28.04,113.49 -10.46,30.11 -51.57,10.52 -57.67,-29.6"
         style="fill:#da6c4e;fill-opacity:1;fill-rule:evenodd;stroke:none"
         id="path126" />
      <path
         d="m 4827.66,3458.17 c 135.61,-6.01 120.46,-194.07 128.15,-278.86 5.8,-63.76 -51.84,-199.97 -51.84,-199.97 l -139.43,414.43 63.12,64.4"
         style="fill:#501c13;fill-opacity:1;fill-rule:evenodd;stroke:none"
         id="path128" />
      <path
         d="m 4119.22,2922.33 c -92.76,23.19 -145.56,-70.83 -52.17,-156.49 93.38,-85.66 141.69,-24.16 141.69,-24.16 0,0 35.42,-119.46 175.82,-249.56 140.4,-130.09 369.68,-62.47 445.03,9.02 75.34,71.48 120.43,256.33 120.43,256.33 0,0 -29.57,281.36 -88.92,476.74 -23.61,77.78 -74.8,137.23 -106.23,147.97 -60.54,20.69 -546.78,-114 -556.44,-144.91 -9.66,-30.92 -9.66,-218.33 -9.66,-218.33 l -21.25,-142.98 -48.3,46.37"
         style="fill:#f8a883;fill-opacity:1;fill-rule:evenodd;stroke:none"
         id="path130" />
      <path
         d="m 4805.39,3340.36 c -17.97,22.07 -36.27,36.95 -50.52,41.82 -60.54,20.69 -546.78,-114 -556.44,-144.91 -9.66,-30.92 -9.66,-218.33 -9.66,-218.33 l -11.17,-75.17 c 1.75,1.73 3.13,4.5 4,8.53 15.45,71.48 65.69,235.71 65.69,235.71 0,0 112.06,11.6 291.73,44.45 116.59,21.31 207.13,61.32 266.37,107.9"
         style="fill:#da6c4e;fill-opacity:1;fill-rule:evenodd;stroke:none"
         id="path132" />
      <path
         d="m 4225.48,3229.54 c 8.3,-37.31 -39.48,-313.02 -44.44,-392.22 0,0 -193.21,378.7 -142.98,457.91 50.23,79.22 34.78,34.78 34.78,34.78 88.48,281.22 713.33,288.3 709,159.21 -2.08,-61.71 -79.37,-124.71 -556.36,-259.68"
         style="fill:#6c2716;fill-opacity:1;fill-rule:evenodd;stroke:none"
         id="path134" />
      <path
         d="m 4486.4,2992.82 c 43.23,-50.77 26.51,-94.84 -37.46,-104.41 -50.42,-7.55 -112.74,9.52 -75.98,76.87 15.11,27.69 69.75,38.46 113.44,27.54"
         style="fill:#ffffff;fill-opacity:1;fill-rule:evenodd;stroke:none"
         id="path136" />
      <path
         d="m 4802.76,3053.89 c 29.29,-23.16 35.95,-60.13 12.31,-88.4 -23.64,-28.25 -75.7,-22.54 -85.74,-9.52 -7.93,10.29 -15.43,86.58 23.09,105.03 10.24,4.89 34.93,-3.26 50.34,-7.11"
         style="fill:#ffffff;fill-opacity:1;fill-rule:evenodd;stroke:none"
         id="path138" />
      <path
         d="m 4681.92,2984.74 c 13.92,40.43 39.51,95.31 93.14,86.7 33.8,-5.44 51.36,-33.47 62.78,-62.47 l -12.28,14.78 c -57.55,67.27 -102.2,30.14 -123.43,-43.26 -1.17,-5.58 -6.64,-9.15 -12.23,-7.98 -5.58,1.18 -9.16,6.65 -7.98,12.23"
         style="fill:#321511;fill-opacity:1;fill-rule:evenodd;stroke:none"
         id="path140" />
      <path
         d="m 4501.9,2951.33 c -12.91,48.44 -115.83,68.39 -138.59,-9.47 -3.79,-12.95 -5.5,-32.03 -7.05,-46.52 -14.5,65.82 26.19,105.18 66.56,115.1 42.54,10.45 85.63,-11.37 99.3,-54.94 1.16,-5.58 -2.44,-11.05 -8.03,-12.2 -5.57,-1.15 -11.03,2.45 -12.19,8.03"
         style="fill:#321511;fill-opacity:1;fill-rule:evenodd;stroke:none"
         id="path142" />
      <path
         d="m 4744.78,3063.31 c -26.97,-6.09 -42.79,-37.76 -35.35,-70.76 7.45,-32.99 35.35,-54.81 62.32,-48.72 26.97,6.09 42.79,37.77 35.34,70.75 -7.44,33 -35.34,54.81 -62.31,48.73"
         style="fill:#321511;fill-opacity:1;fill-rule:evenodd;stroke:none"
         id="path144" />
      <path
         d="m 4422.69,3003.13 c -26.96,-6.08 -42.79,-37.76 -35.36,-70.75 17.77,-78.66 115.42,-56.62 97.67,22.04 -7.44,32.99 -35.34,54.8 -62.31,48.71"
         style="fill:#321511;fill-opacity:1;fill-rule:evenodd;stroke:none"
         id="path146" />
      <path
         d="m 4431.11,3144.79 c 15.79,-55.4 23.69,-71.08 -29.53,-82 -53.22,-10.92 -130.6,-50.22 -130.6,-50.22 0,0 8.99,110.13 160.13,132.22"
         style="fill:#6c2716;fill-opacity:1;fill-rule:evenodd;stroke:none"
         id="path148" />
      <path
         d="m 4665.01,3185.49 c 3.27,-34.07 6.35,-67.11 37.08,-63.38 30.74,3.72 117.76,19.31 117.76,19.31 0,0 -24.83,55.98 -154.84,44.07"
         style="fill:#6c2716;fill-opacity:1;fill-rule:evenodd;stroke:none"
         id="path150" />
      <path
         d="m 4792.19,3051.57 c -10.21,5.23 -20.3,5.93 -22.54,1.54 -2.25,-4.38 4.19,-12.18 14.39,-17.41 10.21,-5.24 20.3,-5.92 22.54,-1.54 2.25,4.38 -4.2,12.18 -14.39,17.41"
         style="fill:#ffffff;fill-opacity:1;fill-rule:evenodd;stroke:none"
         id="path152" />
      <path
         d="m 4395.87,2984.3 c 10.19,5.23 20.29,5.92 22.54,1.53 2.25,-4.38 -4.2,-12.17 -14.39,-17.41 -10.21,-5.23 -20.3,-5.92 -22.56,-1.54 -2.24,4.38 4.2,12.19 14.41,17.42"
         style="fill:#ffffff;fill-opacity:1;fill-rule:evenodd;stroke:none"
         id="path154" />
      <path
         d="m 4708.25,2828.44 c -42.32,-16.77 -85.07,-15.15 -109.6,-11.19 -24.52,3.96 5.77,-63.5 59.05,-63.35 53.27,0.14 96.87,77.07 50.55,74.54"
         style="fill:#da6c4e;fill-opacity:1;fill-rule:evenodd;stroke:none"
         id="path156" />
      <path
         d="m 4718.7,2706.57 c -36.19,-8.55 -122.59,-18.96 -179.31,13.57 -56.69,32.53 -27.72,-120.29 72.9,-118.49 100.63,1.79 136,72.27 106.41,104.92"
         style="fill:#ffffff;fill-opacity:1;fill-rule:evenodd;stroke:none"
         id="path158" />
      <path
         d="m 4652.47,2875.08 c -1.32,-1.62 -2.22,-5.97 -2.13,-10.83 0.14,-7.24 3.08,-19.52 8.2,-24.53 5.51,-5.38 13.32,-3.16 15.64,-0.29 3.71,4.56 -4.37,10.54 -9.99,18.49 -6.15,8.67 -10.16,19.07 -11.72,17.16"
         style="fill:#ffffff;fill-opacity:1;fill-rule:evenodd;stroke:none"
         id="path160" />
      <path
         d="m 4144.66,2853.43 c 26.51,-32.21 38.9,-78.65 12.45,-91.88 -21.33,-10.67 -80.81,48 -86.02,84.95 -4.64,32.87 47.02,39.16 73.57,6.93"
         style="fill:#da6c4e;fill-opacity:1;fill-rule:evenodd;stroke:none"
         id="path162" />
      <path
         d="m 4595.23,2555.68 c 25.79,-6.2 50.31,-1.78 64.13,2.51 13.8,4.29 1.86,-37.09 -28.88,-41.35 -30.73,-4.28 -62.16,36.52 -35.25,38.84"
         style="fill:#da6c4e;fill-opacity:1;fill-rule:evenodd;stroke:none"
         id="path164" />
      <path
         d="m 4143.33,3445.83 c -70.16,42.09 -136.82,12.28 -136.82,12.28 l 92.97,-33.33 c 0,0 -61.4,1.75 -87.7,-70.17 -16.76,-45.78 45.5,-258.01 46.19,-259.7 49.12,-120.21 39.72,-127.57 112.3,-227.82 12.41,-17.1 -3.31,103.94 5.6,139.64 23.67,94.8 14.35,111.19 46.72,208.57 0,0 19.62,-3.84 291.48,54.05 269.41,57.35 417.28,160.67 366.62,467.98 -193.24,-74.07 -583.37,36.14 -686.49,-244.14 l -15.77,99.98 c 0,0 -42.11,-40.34 -35.1,-147.34"
         style="fill:#6c2716;fill-opacity:1;fill-rule:evenodd;stroke:none"
         id="path166" />
      <path
         d="m 4672.59,2769.81 c 12.77,8.05 47.86,28.47 53.34,46.48 l -0.28,17.49 c -41.05,33.51 -50.42,45.14 -65.67,93.51 -3.83,12.12 -2.2,8.52 -6.94,16.6 -7.99,-47.25 21.12,-87.91 52.8,-119.45 -15.67,-18.95 -19.55,-18.52 -43.92,-31.78 -6.3,-2.94 -9.03,-10.44 -6.09,-16.76 2.95,-6.31 10.46,-9.03 16.76,-6.09"
         style="fill:#321511;fill-opacity:1;fill-rule:evenodd;stroke:none"
         id="path168" />
      <path
         d="m 4228.29,3215.46 c 16.06,1.25 75.37,9.09 285.78,53.89 107.8,22.94 196.13,53.25 260.07,101.04 4.85,3.62 9.57,7.35 14.14,11.18 21.01,17.62 39.01,37.46 53.77,59.95 44.78,68.15 59.93,160.66 39.67,289.49 -13.1,-81.44 -50.12,-157 -107.7,-216.91 -42.81,-44.52 -96.95,-80.41 -161.09,-103.66 -154.57,-56.03 -154.57,-56.03 -154.57,-56.03 l 110.15,104.34 c 0,0 -166.18,-92.75 -276.3,-133.33 -110.14,-40.57 -152.64,-48.3 -152.64,-48.3 37.39,-119.55 -86.92,-148.1 -62.92,-219.96 29.81,-89.25 45.62,-123.78 93.62,-190.07 0.83,-1.14 1.56,-1.67 2.14,-1.64 7,-13.52 13.95,-27.64 13.95,-27.64 0.53,-2.01 -3.66,41.72 -2.96,37.27 4.86,77.82 51.02,305.66 44.89,340.38"
         style="fill:#501c13;fill-opacity:1;fill-rule:evenodd;stroke:none"
         id="path170" />
      <path
         d="m 3793.13,2178.16 c 120.61,-263.88 154.24,-313.17 210.93,-382.88 62.06,-76.32 129.35,-328.01 -119.42,-329.54 -57.53,-0.37 -138.6,92.81 -168.55,160.22 -113.09,254.57 -67.41,535.36 -118.98,612.72 -6.28,9.42 -113.58,180.15 -127.43,235.07 -3.69,14.66 6.48,25.29 18.41,17.35 25.72,-17.14 57.82,-67.27 57.82,-67.27 -5.02,22.25 -95.46,201.13 -40.03,187.44 12.79,-3.16 75.31,-139.44 82.57,-140 7.26,-0.55 -29.99,103.02 -38.17,153.51 -8.19,50.48 13.85,66.8 33.08,39.85 19.25,-26.95 63.44,-191.73 73.58,-185.61 10.15,6.13 -10.68,81.55 -21.85,131.18 -11.17,49.61 21.59,62.48 42.36,11.72 20.75,-50.74 83.69,-230.28 83.69,-230.28 0,0 26.42,2.11 30.38,33.18 3.99,31.08 18.37,74.38 33.45,80.52 15.09,6.14 18.9,-8.37 22.93,-96.91 4.01,-88.53 -39.07,-148.18 -47.38,-181.88 -3.99,-16.14 -6.58,-30.07 -7.39,-48.39"
         style="fill:url(#linearGradient176);fill-opacity:1;fill-rule:evenodd;stroke:none"
         id="path178" />
      <path
         d="m 4400.51,2314.25 c 2.2,7.07 2.08,39.81 1.69,49.1 -0.41,9.62 5.43,17.28 13.71,9.85 29.36,-26.29 134.19,-64.58 221.53,-53.26 124.29,16.09 161.02,86.94 161.02,86.94 0,0 9.55,8.82 12.07,0.44 2.99,-9.92 -6.76,-51.51 3.25,-59.29 84.55,-33.17 248.33,-44.38 270.23,-63.55 142.46,-124.64 263.58,-355.39 287.73,-544.85 -64.41,-87.58 -188.07,-32.2 -252.47,-119.79 -43.79,47.02 -39.28,80.51 -73.41,123.66 -45.37,-171.28 0.44,-292.51 79.86,-433.76 10.8,-19.22 22.22,-38.8 34.13,-58.92 -46.99,-100.5 -101.75,-144.71 -173.3,-195.92 -4.6,-3.7 -9.08,-9.5 -20.07,-16.57 -64.4,-45.709 -219.85,-79.998 -293.61,-85.361 C 4338.49,928.75 4095.6,1056.25 4101,1250.82 c 22.66,38.31 56.46,26.34 74.66,61.91 61.66,120.5 79.13,280.54 39.34,430.77 -27.29,-34.5 -39.14,-72.18 -62.2,-110.03 -34.82,-57.17 -82.86,-114.75 -150.06,-162.57 -3.4,-2.84 -6.95,-5.44 -10.57,-7.78 -57.99,-37.25 -188.19,5.12 -229.41,34.34 -41.22,29.23 -143.62,217.97 -148.22,358.89 -4.61,140.93 -10.74,253.29 -10.74,253.29 l 13.71,29.05 -9.55,47.47 c 85.86,-14.52 188.65,19.4 188.65,19.4 l 10.23,-33.14 c 0,0 28.08,-12 35.45,-30.37 6.98,-17.35 28.31,-107.15 78.84,-193.17 79.23,105.63 225.8,290.82 248.46,310.65 21.41,18.73 149.75,25.88 230.92,54.72"
         style="fill:#3a9786;fill-opacity:1;fill-rule:evenodd;stroke:none"
         id="path180" />
      <path
         d="m 5157.76,1654.14 c -14.22,-8.1 -27.25,-19.02 -38.49,-34.3 -43.79,47.02 -39.28,80.51 -73.41,123.66 -10.32,-38.95 -15.91,-75.33 -17.48,-109.93 -25.35,101.76 -36.16,237.18 17.66,262.92 53.56,-118.11 88.71,-193.81 111.72,-242.35"
         style="fill:#327b7b;fill-opacity:1;fill-rule:evenodd;stroke:none"
         id="path182" />
      <path
         d="m 4176.58,1914.19 c -21.58,4.78 3.51,-75.66 10.81,-98.41 27.09,-84.28 46.62,-145.03 48.68,-219.13 10.63,-2.9 21.25,-5.62 31.88,-8.17 262.16,-63.14 519,-24.69 669.75,11.1 37.01,8.77 67.62,17.42 90.34,24.32 1.18,49.5 86.05,338.19 42.14,324.1 -150.11,-48.13 -701.35,-76.32 -893.6,-33.81"
         style="fill:#f8c6a8;fill-opacity:1;fill-rule:evenodd;stroke:none"
         id="path184" />
      <path
         d="m 4176.05,1854.36 c -21.38,-60.75 -64.85,-160.69 -114.36,-237.76 -31.48,-48.99 -65.39,-88.74 -97.63,-103.3 -38.2,-17.26 -86.75,-25.08 -132.14,-28.16 -15.4,-1.04 -30.43,-1.55 -44.57,-1.68 54.79,-26.33 155.71,-51.88 204.82,-20.34 3.62,2.34 7.17,4.94 10.57,7.78 67.2,47.82 115.24,105.4 150.06,162.57 22,36.13 33.8,72.1 58.57,105.29 -6.94,24 -15.05,49.22 -23.98,77.02 -2.54,7.89 -7.21,22.75 -11.34,38.58"
         style="fill:#327b7b;fill-opacity:1;fill-rule:evenodd;stroke:none"
         id="path186" />
      <path
         d="m 3933.68,1960.67 c 22.81,-48.24 67.07,-110.74 67.02,-162.86 l -3.64,-29.33 c -20,98.19 -40.75,99.36 -86.22,181.52 -2.95,6.31 -0.21,13.82 6.09,16.76 6.3,2.96 13.8,0.23 16.75,-6.09"
         style="fill:#2a7172;fill-opacity:1;fill-rule:evenodd;stroke:none"
         id="path188" />
      <path
         d="m 5238.56,2929.04 c -38.8,-114.04 -183.51,-273.86 -60.98,-400.8 122.53,-126.96 185.86,-156.43 62.9,-246.56 -122.95,-90.12 -59.45,-269.01 143.86,-274.31 203.33,-5.3 -122.32,-207.48 189.47,-230.78 311.8,-23.33 808.91,245.18 790.18,328.76 -18.73,83.6 -103.42,150.15 -12.65,205.14 90.76,55.01 80.81,231.94 3.4,260.05 -77.45,28.14 -11.9,123.39 -39.72,227.44 -27.82,104.07 -126.7,243.96 -126.7,243.96 l -949.76,-112.9"
         style="fill:#b97548;fill-opacity:1;fill-rule:evenodd;stroke:none"
         id="path190" />
      <path
         d="m 5238.56,2929.04 c -38.8,-114.04 -183.51,-273.86 -60.98,-400.8 33.78,-34.99 63.05,-62.57 85.16,-86.07 -8.37,22.57 -18.53,57.33 -26.83,109.95 -20.83,132.26 62.61,122.5 138.04,296.39 l -78.22,87.33 -57.17,-6.8"
         style="fill:#c98352;fill-opacity:1;fill-rule:evenodd;stroke:none"
         id="path192" />
      <path
         d="m 5415.45,3457.79 c 85.85,35.17 176.73,11.78 202.95,-52.24 26.23,-64.02 -22.12,-144.43 -107.99,-179.6 -85.85,-35.18 -176.72,-11.78 -202.95,52.23 -26.23,64.02 22.12,144.43 107.99,179.61"
         style="fill:#b97548;fill-opacity:1;fill-rule:evenodd;stroke:none"
         id="path194" />
      <path
         d="m 6133.17,2761.82 c -2.77,61.95 61.84,175.05 112.57,107.34 50.73,-67.71 -5.66,-199.27 -52.95,-191.48 -47.29,7.79 -59.62,84.14 -59.62,84.14"
         style="fill:#f8a883;fill-opacity:1;fill-rule:evenodd;stroke:none"
         id="path196" />
      <path
         d="m 6155.23,2801.86 c -4.83,-41 6.9,-85.23 31.94,-80.59 20.19,3.75 42.91,79.33 31.84,112.45 -12.24,36.61 -58.92,9.16 -63.78,-31.86"
         style="fill:#da6c4e;fill-opacity:1;fill-rule:evenodd;stroke:none"
         id="path198" />
      <path
         d="m 6191.18,2908.23 c 5.49,-101.72 -19.46,-183.62 44.48,-216.42 73.04,-37.47 15.53,-77.75 -26.05,-124.9 -41.59,-47.15 54.17,-78.84 65.48,-77.55 11.3,1.3 -85.99,-21.74 -110.38,27.26 -24.41,49 46.17,95.35 35.79,127.85 -10.36,32.5 -104.02,110.43 -101.75,162.72 0.06,1.21 89.51,155.16 92.43,101.04"
         style="fill:#c98352;fill-opacity:1;fill-rule:evenodd;stroke:none"
         id="path200" />
      <path
         d="m 5412.8,2066.34 c -195.82,-197.97 -318.34,-402.07 -325.08,-547.27 -4.54,-98.21 124.71,-176.3 146.43,-149.94 35.86,43.5 9.67,158.98 68.8,119.48 15.96,22.34 185.24,259.54 220.61,314.72 37.12,57.92 -110.76,263.01 -110.76,263.01"
         style="fill:#f8a883;fill-opacity:1;fill-rule:evenodd;stroke:none"
         id="path202" />
      <path
         d="m 6186.93,2013.21 c 100.96,-9.6 -35.19,-99.07 70.59,-100.97 l 485.69,265.47 c 167.31,196.22 136,363.75 113.96,607.84 8.47,59.03 -0.52,32.28 30.21,91.65 13.36,25.8 18.62,53.53 24.87,87.17 9.57,51.46 10,115.24 6.65,138.34 -2.38,16.32 -7.54,44.25 -17.06,34.18 -12.76,-13.48 -23.3,-79.44 -23.3,-79.44 0,0 -7.91,-8.59 -6.6,4.02 3.66,34.9 15.62,124.21 -5.88,151.2 -9.06,11.38 -20.43,11.64 -23.07,-5.83 -23.67,-156.65 -24.89,-116.25 -24.89,-116.25 0,0 6.46,130.94 -21.1,141.49 -27.54,10.54 -35.6,-132.23 -35.6,-132.23 0,0 -4.88,71.7 -8.89,112.89 -4,41.19 -45.41,37.97 -45.2,-21 0.36,-99.05 -6.92,-122.68 -8.32,-192.57 0,0 -7.97,8.54 -43.29,48.64 -35.32,40.1 -46.55,0.84 -46.55,0.84 0,0 33.38,-84.75 49.14,-116.3 15.76,-31.55 58.17,-60.24 58.17,-60.24 0,0 -3.14,-25.06 -7.16,-46.25 -14.45,-51.73 -66.74,-237.78 -84.92,-294.97 -21.19,-66.7 -34.3,-164.9 -34.3,-164.9 0,0 -204.14,-87.57 -334.1,-169.87 -88.53,-56.08 -70.21,-129.6 -69.05,-182.91"
         style="fill:url(#linearGradient208);fill-opacity:1;fill-rule:evenodd;stroke:none"
         id="path210" />
      <path
         d="m 5753.43,2193.19 c -83.64,-13.44 -123.37,-36.5 -180.82,-53.93 -5.94,-1.8 -26.42,8.73 -32.3,7.79 -140.17,-22.35 -274.51,-173.23 -354.78,-286.19 0,0 93.75,-194.99 332.58,-194.79 15.63,-64.91 149.48,-108 131.77,-259.3 -9.79,-83.7 -147.03,-261.94 -157.3,-288.49 -42.33,-109.39 286.93,-248.292 574.4,-206.94 185.55,26.691 370.61,152.9 370.46,328.81 -0.03,49.02 -138.57,175.64 -146.44,229.03 -3.51,23.74 38.78,179.11 44.79,287.83 2.41,43.7 -33.41,105.73 -30.53,114.02 106.27,14.95 195.78,13.2 204.28,42.47 80.48,277.14 41.09,437.85 54.86,443.26 -33.98,-23.01 -353.77,-157.67 -369.12,-154.82 -18.66,3.48 -356.49,-16.09 -441.85,-8.75"
         style="fill:#e9124d;fill-opacity:1;fill-rule:evenodd;stroke:none"
         id="path212" />
      <path
         d="m 5519.38,1661.58 c 20.52,-62.49 147.81,-107.02 130.5,-254.81 -9.79,-83.7 -147.03,-261.94 -157.3,-288.49 -31.04,-80.2 137.72,-176.292 343.29,-205.518 -77.71,49.148 -181.43,125.568 -184.39,178.758 -2.94,53.21 75.55,144.08 93.04,240.15 29.98,24.87 27.98,32.06 116.28,64.16 88.3,32.1 333.29,49.9 362.27,117.53 24.03,56.12 -179.45,-15.96 -257.46,-20.35 -145.83,-8.18 -192.44,-8.82 -246.2,25.54 -56.29,83.9 -161.29,207.34 -161.29,207.34 0,0 -12.27,-33.26 -38.74,-64.31"
         style="fill:#b91742;fill-opacity:1;fill-rule:evenodd;stroke:none"
         id="path214" />
      <path
         d="m 6101.16,2521.09 c -111.48,-199.92 -102.26,-272.74 -39.21,-295.81 40.98,-15.01 103.67,-17.3 161.97,-14.28 0,0 -66.04,-394.14 -272.24,-379.95 -249.8,12.36 -413.15,273.7 -419.39,311.49 -0.92,5.59 183.22,58.89 212.48,68.65 l -32.52,115.79 388.91,194.11"
         style="fill:#f8a883;fill-opacity:1;fill-rule:evenodd;stroke:none"
         id="path216" />
      <path
         d="m 6101.28,2499.75 c -26.33,-47.21 -35.81,-132.52 -57.15,-226.94 -10.03,-44.39 30.2,-53.67 52.08,-57.98 -112.65,-177.18 -328.95,-130.21 -433.85,-29.56 97.7,56.4 -47.04,118.23 -103.58,233.68 l 542.5,80.8"
         style="fill:#e27d5e;fill-opacity:1;fill-rule:evenodd;stroke:none"
         id="path218" />
      <path
         d="m 6035.62,3201.14 c 93.96,11.6 162.09,-98.74 159.48,-235.34 -2.6,-136.59 -56.95,-248.42 -56.95,-248.42 0,0 -125.52,338.81 -130.52,363.5 -4.99,24.69 -6.32,98.5 27.99,120.26"
         style="fill:#b97548;fill-opacity:1;fill-rule:evenodd;stroke:none"
         id="path220" />
      <path
         d="m 6165.58,2494.14 c -42.65,-142 -129.09,-224.8 -232.54,-244.63 -133.29,-25.55 -294.05,47.1 -417.65,165.84 -174.74,-28.19 -252.89,154.62 -196.92,191.6 47.34,31.3 108.98,-15.46 108.98,-15.46 l -49.03,602.16 c 0,0 408.26,152.56 622.94,-17.54 97.13,-76.96 145.01,-225.66 163.02,-368.27 16.34,-129.45 19.58,-252.45 1.2,-313.7"
         style="fill:#f8a883;fill-opacity:1;fill-rule:evenodd;stroke:none"
         id="path222" />
      <path
         d="m 5395.69,2622.29 c 29.45,-6.13 31.76,-30.8 31.76,-30.8 l -4.21,51.66 c 6.11,0.82 10.39,3.07 13.05,5.85 22.79,23.79 -13.46,143.62 -17.64,178.91 -1.22,10.19 -6.72,27.66 -14.42,48.83 l -10.53,129.23 c 1.57,-2.25 3.15,-4.46 4.7,-6.63 30.5,-42.77 27.72,-37.48 78.43,-42.31 202.02,-19.23 431.29,30.77 551.19,170.9 2.43,2.85 4.79,5.74 7.07,8.64 1.12,1.41 2.21,2.83 3.29,4.26 11.6,-13.12 22.31,-27.42 32.2,-42.67 l -0.08,-0.14 c -9.92,-16.64 -24.58,-32.9 -42.81,-48.48 -98.31,-84.02 -300.18,-148.25 -418.38,-148.27 -142.12,-0.02 -162.19,36.44 -151.28,-36.19 14.04,-93.48 2.73,-227.41 21.56,-316.61 0,0 12.21,-14.68 -47.15,41.17 -9.9,9.32 -27.04,22.23 -36.75,32.65"
         style="fill:#f6855a;fill-opacity:1;fill-rule:evenodd;stroke:none"
         id="path224" />
      <path
         d="m 5412.37,2546.33 c 34.45,-23.54 59.29,-64.69 37.57,-84.76 -17.51,-16.18 -87.15,24.04 -102.45,58.08 -13.62,30.27 30.42,50.24 64.88,26.68"
         style="fill:#da6c4e;fill-opacity:1;fill-rule:evenodd;stroke:none"
         id="path226" />
      <path
         d="m 6054.2,3129.46 c -58.64,-108.47 -321.68,-201.3 -463.79,-201.32 -142.11,-0.02 -162.19,36.44 -151.27,-36.19 14.04,-93.48 44.35,-280.68 63.17,-369.88 0,0 -185.07,111.48 -231.82,253.67 -30.63,93.12 -60.75,264.3 5.66,386.16 42.74,78.4 186.58,180.97 266.28,202.24 203.55,54.32 585.44,-11.44 511.77,-234.68"
         style="fill:#c98352;fill-opacity:1;fill-rule:evenodd;stroke:none"
         id="path228" />
      <path
         d="m 5946.03,2780.75 c -13.9,-64.93 26.64,-97.52 85.37,-76.62 46.29,16.46 85.13,61.39 23.53,104.28 -25.33,17.64 -76.66,2.1 -108.9,-27.66"
         style="fill:#ffffff;fill-opacity:1;fill-rule:evenodd;stroke:none"
         id="path230" />
      <path
         d="m 5626.02,2696.6 c -5.33,-23.46 -3.97,-69.93 30.08,-84.02 34.36,-14.21 77.07,6.05 92.49,38.59 9.29,19.63 6.44,46.56 -7.93,65.1 -19.3,24.89 -81.1,10.18 -114.64,-19.67"
         style="fill:#ffffff;fill-opacity:1;fill-rule:evenodd;stroke:none"
         id="path232" />
      <path
         d="m 5613.45,2672.65 c -4.44,68.75 139.82,111.49 157.24,-12.98 l -8.49,17.23 c -40.17,78.9 -111.16,52.4 -130.12,-13.11 -2.44,-5.15 -8.6,-7.34 -13.76,-4.91 -5.15,2.45 -7.34,8.62 -4.87,13.77"
         style="fill:#321511;fill-opacity:1;fill-rule:evenodd;stroke:none"
         id="path234" />
      <path
         d="m 5951.81,2736.83 c -11.02,48.9 65.22,113.11 121.49,54.69 9.38,-9.72 19.72,-25.83 27.84,-37.95 -36.33,133.56 -184.93,65.19 -169.18,-22.43 1.58,-5.48 7.29,-8.65 12.78,-7.08 5.47,1.57 8.64,7.29 7.07,12.77"
         style="fill:#321511;fill-opacity:1;fill-rule:evenodd;stroke:none"
         id="path236" />
      <path
         d="m 5673.02,2731.84 c 26.72,7.11 55.43,-13.62 64.13,-46.3 7.33,-27.52 -1.94,-63.89 -32.62,-72.05 -26.7,-7.12 -55.42,13.6 -64.13,46.29 -8.69,32.69 5.91,64.94 32.62,72.06"
         style="fill:#321511;fill-opacity:1;fill-rule:evenodd;stroke:none"
         id="path238" />
      <path
         d="m 5997.97,2819.46 c 26.71,7.11 55.42,-13.62 64.13,-46.3 20.74,-77.93 -76,-103.68 -96.75,-25.76 -8.69,32.69 5.9,64.94 32.62,72.06"
         style="fill:#321511;fill-opacity:1;fill-rule:evenodd;stroke:none"
         id="path240" />
      <path
         d="m 5684.12,2882.35 c 18.88,-54.43 27.66,-69.64 -24.86,-83.54 -52.53,-13.89 -127.56,-57.49 -127.56,-57.49 0,0 2.76,110.46 152.42,141.03"
         style="fill:#c98352;fill-opacity:1;fill-rule:evenodd;stroke:none"
         id="path242" />
      <path
         d="m 5902.68,2933.44 c 8.51,-33.16 16.67,-65.32 46.45,-56.88 29.79,8.44 113.34,37.31 113.34,37.31 0,0 -33.18,51.45 -159.79,19.57"
         style="fill:#c98352;fill-opacity:1;fill-rule:evenodd;stroke:none"
         id="path244" />
      <path
         d="m 5640.36,2686.13 c 6.61,9.36 15.24,14.65 19.26,11.81 4.02,-2.84 1.92,-12.74 -4.69,-22.11 -6.61,-9.36 -15.23,-14.65 -19.26,-11.81 -4.02,2.84 -1.92,12.73 4.69,22.11"
         style="fill:#ffffff;fill-opacity:1;fill-rule:evenodd;stroke:none"
         id="path246" />
      <path
         d="m 5962.43,2778.35 c 6.61,9.36 15.23,14.66 19.26,11.81 4.02,-2.84 1.92,-12.73 -4.69,-22.09 -6.6,-9.37 -15.23,-14.67 -19.27,-11.82 -4.01,2.84 -1.9,12.74 4.7,22.1"
         style="fill:#ffffff;fill-opacity:1;fill-rule:evenodd;stroke:none"
         id="path248" />
      <path
         d="m 5973.93,2589.49 c -35.78,-25.3 -76.12,-33.49 -99.94,-35.36 -23.82,-1.85 19.82,-58.06 69.59,-45.83 49.78,12.25 73.09,94.07 30.35,81.19"
         style="fill:#da6c4e;fill-opacity:1;fill-rule:evenodd;stroke:none"
         id="path250" />
      <path
         d="m 5953.9,2526.57 c 10.1,10.42 38.27,37.48 39.31,55.57 l -4.24,16.3 c -45.97,22 -57.38,30.76 -82.62,72.51 -6.34,10.46 -3.99,7.47 -10.28,13.94 3.28,-45.99 39.72,-77.39 76.51,-99.7 -10.36,-21.27 -14.08,-21.74 -33.85,-39.67 -5.22,-4.19 -6.07,-11.83 -1.88,-17.05 4.18,-5.23 11.8,-6.08 17.05,-1.9"
         style="fill:#321511;fill-opacity:1;fill-rule:evenodd;stroke:none"
         id="path252" />
      <path
         d="m 5994.2,2493.92 c -34.84,-12.91 -119.33,-33.82 -179.6,-8.48 -60.27,25.34 -12.77,-122.78 86.86,-108.69 99.65,14.11 126.12,88.4 92.74,117.17"
         style="fill:#ffffff;fill-opacity:1;fill-rule:evenodd;stroke:none"
         id="path254" />
      <path
         d="m 5530.71,2154.98 c -48.3,-22.55 -45.07,-64.42 -11.26,-101.44 33.8,-37.04 53.14,-22.55 53.14,-22.55 0,0 -30.6,-72.44 20.93,-109.47 51.52,-37.04 88.55,-9.67 88.55,-9.67 0,0 -6.44,-61.18 43.47,-77.28 49.91,-16.1 74.06,11.26 74.06,11.26 55.86,-117.91 183.15,-85.97 178.72,-12.88 50.79,-60.49 155.33,-48.85 156.18,46.69 0,0 74.06,20.94 88.55,59.58 14.5,38.64 -16.11,86.94 -16.11,86.94 41.84,24.55 96.55,77.32 29,111.1 43.02,10.24 72.67,94.4 25.76,83.72 l -35.41,-8.05 c 0,0 -273.72,-400.9 -695.58,-57.95"
         style="fill:#ffffff;fill-opacity:1;fill-rule:evenodd;stroke:none"
         id="path256" />
      <path
         d="m 5911.17,2620.43 c -0.86,-1.82 -0.71,-6.08 0.48,-10.61 1.75,-6.73 7.3,-17.56 13.23,-21.07 6.39,-3.78 13.17,0.07 14.7,3.28 2.43,5.1 -6.47,8.86 -13.55,15.01 -7.73,6.72 -13.83,15.52 -14.86,13.39"
         style="fill:#ffffff;fill-opacity:1;fill-rule:evenodd;stroke:none"
         id="path258" />
      <path
         d="m 5894.37,2358.12 c 26.34,-3.01 50.13,4.4 63.33,10.35 13.18,5.96 6.38,-36.59 -23.59,-44.59 -29.98,-8.01 -66.17,28.63 -39.74,34.24"
         style="fill:#da6c4e;fill-opacity:1;fill-rule:evenodd;stroke:none"
         id="path260" />
      <path
         d="m 5439.14,2891.95 c 14.04,-93.48 44.35,-280.68 63.17,-369.88 0,0 -58.16,35.04 -117.52,90.88 -18.52,17.43 -37.15,36.87 -54.16,57.92 -14.47,17.89 -27.78,36.92 -38.85,56.84 77.87,-65.75 114.88,-63.05 125.62,-51.84 22.79,23.78 -13.46,143.62 -17.64,178.91 -5.8,48.95 -110.4,265.34 -85.08,255.07 10.59,-2.31 40.17,-49.07 64.82,-83.64 30.51,-42.77 27.74,-37.48 78.44,-42.31 202.01,-19.23 431.3,30.77 551.17,170.91 2.45,2.84 4.81,5.72 7.1,8.63 9.54,12.17 17.82,24.93 24.61,38.22 5.29,10.39 9.67,21.1 13.04,32.12 4.18,-10.32 7.08,-21.19 8.54,-32.65 2.78,-21.79 0.38,-45.67 -8.2,-71.67 -0.82,-1.53 -1.69,-3.05 -2.6,-4.56 -9.91,-16.65 -24.58,-32.91 -42.79,-48.49 -98.32,-84.02 -300.2,-148.25 -418.4,-148.27 -142.11,-0.02 -162.19,36.44 -151.27,-36.19"
         style="fill:#b97548;fill-opacity:1;fill-rule:evenodd;stroke:none"
         id="path262" />
      <path
         d="m 5813.04,2981.91 c 38.94,68.84 64.21,130.82 9.15,200.45 -51.92,65.67 -174.27,109.24 -256.82,104.45 78.3,-16.5 163.89,-37.69 223.16,-95.38 67.49,-65.68 46.32,-124.51 3.74,-195.24 -3.94,-5.74 -2.49,-13.59 3.24,-17.53 5.74,-3.94 13.58,-2.49 17.53,3.25"
         style="fill:#b97548;fill-opacity:1;fill-rule:evenodd;stroke:none"
         id="path264" />
      <path
         d="m 5873.19,3002.11 c 113.65,85.7 213.05,200.37 35.32,291.25 -66.76,34.14 -161.18,57.26 -236.39,59.19 41.23,-9.87 80.49,-17.49 121.37,-29.99 229.9,-70.28 252.82,-164.45 65.23,-299.8 -5.7,-3.99 -7.09,-11.85 -3.09,-17.55 3.99,-5.71 11.85,-7.1 17.56,-3.1"
         style="fill:#b97548;fill-opacity:1;fill-rule:evenodd;stroke:none"
         id="path266" />
      <path
         d="m 5631.53,2978.65 c -169.07,-13.99 -177.95,-7.42 -216.21,172.3 l -10.16,46 c 1.46,-44.87 0.05,-45.51 6.59,-87.88 25.55,-165.41 76.04,-162.79 221.16,-155.59 6.95,0.38 12.28,6.32 11.9,13.27 -0.38,6.96 -6.32,12.28 -13.28,11.9"
         style="fill:#b97548;fill-opacity:1;fill-rule:evenodd;stroke:none"
         id="path268" />
      <path
         d="m 5717.29,2988.08 c 54.88,116.62 -84.41,217.19 -183.54,238.29 l -37.48,5.19 c 13.79,-5.08 52.74,-19.18 66.94,-25.38 72.23,-31.51 177.75,-117.13 132.62,-204.85 -3.65,-5.92 -1.82,-13.69 4.1,-17.35 5.93,-3.65 13.69,-1.83 17.36,4.1"
         style="fill:#b97548;fill-opacity:1;fill-rule:evenodd;stroke:none"
         id="path270" />
      <path
         d="m 5606.03,2943.2 c 49.39,104.92 -90.97,226.12 -170.17,273.11 53.37,-52.75 193.65,-173.4 148.7,-259.86 -3.64,-5.93 -1.82,-13.69 4.11,-17.35 5.93,-3.66 13.69,-1.82 17.36,4.1"
         style="fill:#b97548;fill-opacity:1;fill-rule:evenodd;stroke:none"
         id="path272" />
      <path
         d="m 5913.54,3042.08 c 35.99,53.75 56.1,96.81 16.88,155.84 -54.61,82.17 -219.99,139.49 -315.86,131.96 92.87,-15.19 215.88,-50.2 281.25,-121.52 50.6,-55.22 37.59,-94.83 -1.59,-150.06 -4.47,-5.34 -3.78,-13.3 1.56,-17.77 5.33,-4.48 13.28,-3.78 17.76,1.55"
         style="fill:#b97548;fill-opacity:1;fill-rule:evenodd;stroke:none"
         id="path274" />
      <path
         d="m 5112.33,1409.26 c 66.59,-137.94 245.13,-301.05 344.28,-320.88 113.39,-22.66 46.22,23.87 147.27,2.55 9.07,-1.9 17.45,-2.58 25.17,-2.26 9.26,1.59 15.99,5.21 16.79,11.72 1.61,12.87 -7.25,16.89 -7.25,16.89 0,0 27.39,-2.41 32.21,13.69 4.83,16.1 -8.86,26.56 -8.86,26.56 0,0 33.01,8.06 29.8,20.13 -3.21,12.07 -16.11,21.74 -16.11,21.74 15.6,2.23 41.6,2.89 17.01,23.6 -28.85,24.3 -110.3,23.91 -110.3,23.91 0,0 22.62,48.09 5.69,42.57 -8.91,-2.89 -42.01,-15.07 -63,-32.04 -18.91,-15.31 -25.57,-35.39 -37.98,-40.28 -54.21,-21.31 -69.75,359.98 -286.06,338.07 -109.36,-11.09 -119.88,-81.31 -88.66,-145.97"
         style="fill:url(#linearGradient280);fill-opacity:1;fill-rule:evenodd;stroke:none"
         id="path282" />
      <path
         d="m 5423.71,2748.82 c -13.94,-82.67 35.3,-199.86 102.79,-224.5 77.13,-28.14 25.05,-75.22 -10.39,-127.17 -35.43,-51.94 63.52,-71.51 74.58,-68.83 11.06,2.68 -82.62,-32.23 -112.91,13.37 -30.27,45.62 34.02,100.34 19.71,131.31 -6.1,13.18 -223.87,216.23 -206.52,270.82 15.18,47.83 139.59,45.66 132.74,5"
         style="fill:#c98352;fill-opacity:1;fill-rule:evenodd;stroke:none"
         id="path284" />
      <path
         d="m 6536.19,2020.19 c -76.7,-56.04 -182.65,-76.95 -224.72,-78.46 -1.66,-0.06 -3.22,-0.08 -4.68,-0.08 -48.3,0 -48.3,0 -48.3,0 0,0 5.03,-9.43 12.44,-22.08 9.38,-16.06 22.61,-37.29 34.28,-51.1 -0.16,1.11 -0.15,1.97 0.05,2.56 106.27,14.95 195.78,13.2 204.28,42.47 10.98,37.75 19.71,73.35 26.65,106.69"
         style="fill:#b91742;fill-opacity:1;fill-rule:evenodd;stroke:none"
         id="path286" />
      <path
         d="m 954.707,2343.65 c 5.523,-25.98 10.719,-50.02 15.645,-72.38 -61.832,-6.22 -131.313,-14.55 -204.383,-25.69 13.406,90.89 25.144,162.12 10.586,199.82 -4.082,10.55 -71.649,200.55 -73.203,257.17 -0.418,15.12 11.816,23.27 21.73,12.92 21.387,-22.32 41.781,-78.24 41.781,-78.24 -0.031,22.8 -49.379,217.09 1.746,191.66 11.786,-5.86 43.145,-152.49 50.114,-154.61 6.965,-2.12 -6.848,107.07 -3.844,158.13 2.988,51.06 28.055,62.18 40.973,31.7 12.91,-30.49 20.179,-200.96 31.406,-197.18 11.242,3.77 7.32,81.93 7.219,132.79 -0.106,50.85 34.679,56.28 43.89,2.23 9.227,-54.05 31.574,-242.99 31.574,-242.99 0,0 26.243,-3.69 36.879,25.78 10.65,29.47 34.12,68.6 50.18,71.31 16.05,2.71 16.62,-12.28 1.29,-99.58 -15.35,-87.29 -70.392,-136.12 -85.845,-167.22 -7.402,-14.87 -12.965,-27.91 -17.738,-45.62"
         style="fill:url(#linearGradient292);fill-opacity:1;fill-rule:evenodd;stroke:none"
         id="path294" />
      <path
         d="m 1497.55,2302.69 c -93.76,-17.19 -147.41,13.87 -220.13,-90.19 -62.25,-89.08 -147.72,-175.61 -221.74,-243 -28.39,64.48 -52.1,144.36 -100.391,371.43 -46.859,-13.61 -113.375,-18.95 -176.672,-5.69 -14.996,-124.43 -58.945,-316.77 -19.285,-513.77 14.559,-72.3 73.41,-180.9 129.633,-193.07 59.223,-12.83 103.34,-7.04 135.615,10.26 114.74,28.19 327.91,118.03 341.59,208.38 19.32,127.52 131.38,455.65 131.38,455.65"
         style="fill:#17a6e7;fill-opacity:1;fill-rule:evenodd;stroke:none"
         id="path296" />
      <path
         d="m 1431.87,2163.26 c -30.23,-114.35 -155.15,-198.43 -198.73,-377.14 -32.78,-134.45 -4.31,-293.33 -25.38,-443.04 -5.13,-36.49 -35.14,-70.14 -38.25,-99.33 -8.19,-76.99 63.81,-208.51 118.21,-255.41 5.53,-4.75 7.16,34.14 12.93,29.74 113.48,-86.33 273.12,-101.908 414.45,-80.158 11.96,1.828 38.28,-36.293 49.95,-33.953 185.39,37.461 313.25,177.691 255.47,258.781 -74.37,104.35 -263.19,213.29 -162.23,300.86 18.05,15.65 54.37,37.85 71.24,60.56 20.64,27.78 60.71,104.08 66.71,129.97 79.82,-179.73 101.31,-265.96 142.14,-287.16 54.09,-28.11 205.43,247.5 205.43,247.5 -104.07,324.72 74.08,657.78 -248.33,583.24 -227.56,-22.83 -368.46,-22.6 -603.6,-21.47 l -60.01,-12.99"
         style="fill:#17a6e7;fill-opacity:1;fill-rule:evenodd;stroke:none"
         id="path298" />
      <path
         d="m 1993.84,1646 c 1.05,3.08 1.86,5.81 2.4,8.14 79.82,-179.73 101.31,-265.96 142.14,-287.16 19.1,-9.93 50.36,18.05 82.78,58.4 -32.05,5.8 -59.11,24.34 -79.43,52.15 -61.18,83.72 -106.27,373.54 -106.27,373.54 0,0 -30.16,-148.31 -41.62,-205.07"
         style="fill:#1687d2;fill-opacity:1;fill-rule:evenodd;stroke:none"
         id="path300" />
      <path
         d="m 1298.22,1020.09 c 114.59,-88.758 277.24,-104.289 420.47,-81.559 -19.33,48.731 -67.4,168.169 -52.74,412.609 14.67,244.42 135.25,737.41 135.25,737.41 0,0 -48.61,56.49 -111.41,87.57 -44.28,-0.35 -90.55,-0.3 -140.95,-0.13 -33.83,-22.91 -65.05,-67.65 -88.98,-145.41 -101.82,-330.91 -178.47,-812.68 -161.64,-1010.49"
         style="fill:#dfe792;fill-opacity:1;fill-rule:evenodd;stroke:none"
         id="path302" />
      <path
         d="m 1479.1,2418.92 c -6.52,-10.53 -17.92,-21.79 -31.7,-33.4 -25.82,-16.75 -39.88,-25.68 -39.88,-25.68 0,0 -78.89,19.33 -90.16,-88.56 -1.79,-17.22 -0.34,-35.34 3.45,-53.75 12.75,-138.67 147.03,-401.43 285.16,-401.43 188.94,0 424.66,199.98 560.89,332.65 13.64,13.29 45.74,35.58 59.33,36.45 29.28,1.91 53.23,-31.02 59.56,-13.27 38.63,108.19 -154.24,439.54 -154.24,439.54 0,0 -289.18,-378.03 -652.41,-192.55"
         style="fill:#783c3f;fill-opacity:1;fill-rule:evenodd;stroke:none"
         id="path304" />
      <path
         d="m 1479.1,2418.92 c -6.52,-10.53 -17.92,-21.79 -31.7,-33.4 -6.25,-4.05 -35.81,-26.25 -42.52,-25.18 -28.04,-171.42 58.35,-476.35 299.72,-384.48 52.77,20.09 -54.41,7.23 -105.15,23.48 -98.63,31.6 -150.25,170.82 -131.53,304.97 19.58,140.35 95.73,-135.52 312.35,-51.52 113.56,44.04 244.65,109.76 309.21,143.14 106.73,55.19 40.34,-61.71 -57.45,-166.84 -79.53,-85.53 -181.47,-156.22 -214.73,-177.55 0,0 312.43,153.92 410.62,369.97 -44.56,100.88 -96.41,189.96 -96.41,189.96 0,0 -289.18,-378.03 -652.41,-192.55"
         style="fill:#682c27;fill-opacity:1;fill-rule:evenodd;stroke:none"
         id="path306" />
      <path
         d="m 1401.06,3018.41 c -18.1,-134.63 -29.52,-319.87 15.39,-479.6 7.34,-26.13 16.46,-51.39 27.63,-75.42 45.14,-97.05 189.83,-183.08 193.48,-183.97 79.11,-19.27 296.85,60.81 393.9,172.14 43.29,49.64 89.45,106.83 120.05,156.87 53.96,88.22 -17.46,126.5 -19.04,166.2 l -18.46,460.26 c 0,0 -540.99,69.84 -712.95,-216.48"
         style="fill:#f8a883;fill-opacity:1;fill-rule:evenodd;stroke:none"
         id="path308" />
      <path
         d="m 1815.45,2311.58 c 80.22,31.34 164.87,81.33 216.01,139.98 43.29,49.64 89.45,106.83 120.05,156.87 53.96,88.22 -17.46,126.5 -19.04,166.2 l -0.49,12.16 c -66.6,67.48 -195.12,173.23 -195.12,173.23 22.54,-67.62 62.79,-312.35 32.2,-445.99 -23.25,-101.58 -89.31,-162.24 -153.61,-202.45"
         style="fill:#da6c4e;fill-opacity:1;fill-rule:evenodd;stroke:none"
         id="path310" />
      <path
         d="m 1697,2412.49 c -25.55,-6.96 -50.22,-3.44 -64.17,0.28 -13.95,3.72 -0.58,-36.41 30.29,-39.53 30.86,-3.14 60.85,37.89 33.88,39.25"
         style="fill:#f6855a;fill-opacity:1;fill-rule:evenodd;stroke:none"
         id="path312" />
      <path
         d="m 1788.8,2950.06 c -13.85,-54.8 -21.21,-70.43 32.36,-79.31 53.57,-8.88 132.27,-44.73 132.27,-44.73 0,0 -12.81,107.53 -164.63,124.04"
         style="fill:#321511;fill-opacity:1;fill-rule:evenodd;stroke:none"
         id="path314" />
      <path
         d="m 1612,2952.17 c -3.21,-33.56 -6.21,-66.09 -36.96,-64.08 -30.73,2.01 -117.79,12.66 -117.79,12.66 0,0 24.7,56.16 154.75,51.42"
         style="fill:#321511;fill-opacity:1;fill-rule:evenodd;stroke:none"
         id="path316" />
      <path
         d="m 1589.15,2618.82 c 42.88,-14.98 85.54,-11.95 109.91,-7.23 24.37,4.71 -3.55,-62.4 -56.8,-64.07 -53.25,-1.66 -99.49,72.19 -53.11,71.3"
         style="fill:#da6c4e;fill-opacity:1;fill-rule:evenodd;stroke:none"
         id="path318" />
      <path
         d="m 1626.82,2562.61 c -13.04,7.45 -48.81,26.25 -54.92,43.7 l -0.33,17.15 c 39.86,34.22 48.81,45.92 62.39,93.81 3.41,12 1.89,8.42 6.37,16.49 9.61,-46.01 -18.06,-86.8 -48.64,-118.79 16.33,-18.01 20.19,-17.46 44.99,-29.61 6.41,-2.68 9.4,-9.94 6.67,-16.21 -2.72,-6.28 -10.11,-9.21 -16.53,-6.54"
         style="fill:#321511;fill-opacity:1;fill-rule:evenodd;stroke:none"
         id="path320" />
      <path
         d="m 1643.27,2666.39 c 1.38,-1.55 2.42,-5.77 2.51,-10.54 0.12,-7.08 -2.39,-19.21 -7.35,-24.3 -5.31,-5.46 -13.19,-3.54 -15.62,-0.81 -3.85,4.33 4,10.47 9.36,18.44 5.84,8.7 9.49,19.03 11.1,17.21"
         style="fill:#ffffff;fill-opacity:1;fill-rule:evenodd;stroke:none"
         id="path322" />
      <path
         d="m 1766.97,2483.41 c -48.46,-56.23 -122.49,-52.65 -176.12,-6.3 -11.09,9.58 -22.72,24.78 -19.09,39.99 3.13,-5.58 5.57,-11.48 9.71,-16.47 37.15,-44.75 122.4,-58.6 164.46,-3.61 3.82,5.7 11.64,7.28 17.45,3.52 5.81,-3.76 7.42,-11.42 3.59,-17.13"
         style="fill:#321511;fill-opacity:1;fill-rule:evenodd;stroke:none"
         id="path324" />
      <path
         d="m 1450.76,2991.1 c 375.47,181.61 586.72,-187.28 586.72,-187.28 0,0 74.06,500.84 -45.73,587.93 -119.79,87.09 -459.85,-173.44 -540.99,-400.65"
         style="fill:#dfe792;fill-opacity:1;fill-rule:evenodd;stroke:none"
         id="path326" />
      <path
         d="m 1386.45,2785.75 c 5.55,20.1 11.83,71.13 20.7,91.11 69.67,156.9 165.19,237.85 237.46,262.13 223.89,75.22 455.44,-324.78 324.28,-763.51 -13.71,-45.85 84.47,45.96 122.11,76.83 127.7,104.68 217.37,264.15 240.8,420.65 85.37,570.38 -533.42,737.56 -815.24,412.59 -82.39,-95 -148.13,-212.22 -146.91,-393.58 0,-0.32 7.57,-139.59 16.8,-106.22"
         style="fill:#783c3f;fill-opacity:1;fill-rule:evenodd;stroke:none"
         id="path328" />
      <path
         d="m 1386.45,2785.75 c 5.55,20.1 11.83,71.13 20.7,91.11 69.67,156.9 165.19,237.85 237.46,262.13 223.89,75.22 455.44,-324.78 324.28,-763.51 -13.71,-45.85 84.47,45.96 122.11,76.83 127.7,104.68 217.37,264.15 240.8,420.65 4.45,29.7 6.87,58.24 7.65,85.74 -64.43,-219.47 -271.03,-334.43 -293.51,-224.49 -28.99,141.68 -80.51,499.12 -328.45,466.92 -184.04,-23.9 -295.33,-209.21 -345.75,-341.36 2.87,-38.99 8.39,-96.83 14.71,-74.02"
         style="fill:#682c27;fill-opacity:1;fill-rule:evenodd;stroke:none"
         id="path330" />
      <path
         d="m 2505.42,1967.52 c -5.46,-7.28 -10.76,-14.36 -15.95,-21.24 46.31,-41.08 96.16,-75.92 143.62,-105.32 19.93,67.56 36.44,119.95 59.95,142.72 7.47,7.21 136.95,139.49 160.06,186.07 6.15,12.43 -0.9,23.95 -13.14,19.13 -26.42,-10.36 -64.96,-49.09 -64.96,-49.09 8.83,18.98 124.77,161.85 72.39,160.35 -12.09,-0.34 -94.69,-110.42 -101.32,-109.51 -6.61,0.91 46.95,86.58 64.13,130.27 17.16,43.69 0.57,62.62 -21.94,42.19 -22.5,-20.43 -94.21,-159.65 -102.12,-152.18 -7.91,7.47 25.46,71.08 45.13,113.41 19.68,42.34 -7.2,60.26 -35.71,18.77 -28.49,-41.48 -119.89,-190.28 -119.89,-190.28 0,0 -23.29,7.03 -20.81,35.67 2.49,28.65 -1.99,70.3 -14.33,78.75 -12.34,8.44 -18.58,-3.83 -39.43,-82.47 -20.84,-78.65 6.2,-140.53 7.11,-172.38 0.44,-15.26 0.06,-28.26 -2.79,-44.86"
         style="fill:url(#linearGradient336);fill-opacity:1;fill-rule:evenodd;stroke:none"
         id="path338" />
      <path
         d="m 2492.16,1984.87 c -198.97,-207.79 -221.12,-252.9 -297.33,-299.98 -83.69,-51.69 -229.93,-267.28 4.53,-350.48 54.2,-19.24 161.39,42.13 211.83,95.95 137.39,146.66 204.45,371.97 257.19,485.68 -80.12,5.93 -143.54,32.58 -176.22,68.83"
         style="fill:#17a6e7;fill-opacity:1;fill-rule:evenodd;stroke:none"
         id="path340" />
      <path
         d="m 2098.28,1574.39 c -43.25,-83.28 -46.16,-187.73 101.08,-239.98 54.2,-19.24 161.39,42.13 211.83,95.95 82.49,88.04 139.63,204.45 183.53,308.03 -40.16,-45.28 -86.58,-100.76 -134.19,-164.25 -135.25,-180.34 -257.62,-180.34 -318.8,-96.61 -15.7,21.5 -30.34,56.6 -43.45,96.86"
         style="fill:#1687d2;fill-opacity:1;fill-rule:evenodd;stroke:none"
         id="path342" />
      <path
         d="m 1580.22,2815.51 c 21.14,-62.66 -7.63,-98.13 -66.27,-84.79 -46.24,10.52 -94.82,48.24 -41.14,98.54 22.08,20.69 73,11.71 107.41,-13.75"
         style="fill:#ffffff;fill-opacity:1;fill-rule:evenodd;stroke:none"
         id="path344" />
      <path
         d="m 1907.03,2772.23 c 3.46,-9.52 10.29,-21.61 9.99,-35.64 -0.41,-19.33 -10.74,-40.94 -29.28,-51.5 -42,-23.92 -92.76,5.82 -98.27,45.02 -1.69,12.04 9.64,24.98 15.67,37.53 14.69,30.6 56.63,35.62 101.89,4.59"
         style="fill:#ffffff;fill-opacity:1;fill-rule:evenodd;stroke:none"
         id="path346" />
      <path
         d="m 1769.66,2749.57 c 23.93,36.65 70.27,75.54 117.52,48.77 29.79,-16.88 36.46,-49.27 37.06,-80.44 l -6.36,18.13 c -9.83,26.8 -23.39,41.76 -37.15,49.29 -28.91,15.83 -62.79,-5.2 -93.61,-46.78 -3.05,-4.82 -9.42,-6.26 -14.24,-3.21 -4.82,3.04 -6.26,9.41 -3.22,14.24"
         style="fill:#321511;fill-opacity:1;fill-rule:evenodd;stroke:none"
         id="path348" />
      <path
         d="m 1580.28,2771.22 c 4.44,49.89 -78.49,104.48 -123.41,39.46 -7.48,-10.83 -15.13,-28.11 -21.17,-41.14 17.84,137.07 167.78,87.42 163.48,-1.47 -0.8,-5.64 -5.69,-9.5 -10.91,-8.63 -5.22,0.87 -8.8,6.14 -7.99,11.78"
         style="fill:#321511;fill-opacity:1;fill-rule:evenodd;stroke:none"
         id="path350" />
      <path
         d="m 1865.64,2801.27 c -27.4,3.71 -53.28,-20.46 -57.81,-53.98 -4.52,-33.52 14.02,-63.69 41.41,-67.39 27.4,-3.7 53.28,20.47 57.81,53.99 4.53,33.51 -14.01,63.68 -41.41,67.38"
         style="fill:#321511;fill-opacity:1;fill-rule:evenodd;stroke:none"
         id="path352" />
      <path
         d="m 1533.87,2847.4 c -25.38,3.69 -49.36,-20.48 -53.56,-53.99 -10.01,-79.91 81.92,-93.32 91.92,-13.4 4.2,33.51 -12.98,63.68 -38.36,67.39"
         style="fill:#321511;fill-opacity:1;fill-rule:evenodd;stroke:none"
         id="path354" />
      <path
         d="m 1904.36,2765.69 c -7.73,8.47 -16.95,12.63 -20.59,9.31 -3.63,-3.33 -0.32,-12.89 7.42,-21.35 7.74,-8.46 16.96,-12.62 20.59,-9.3 3.64,3.33 0.32,12.88 -7.42,21.34"
         style="fill:#ffffff;fill-opacity:1;fill-rule:evenodd;stroke:none"
         id="path356" />
      <path
         d="m 1567.81,2809.01 c -7.17,8.47 -15.72,12.63 -19.08,9.31 -3.37,-3.32 -0.29,-12.88 6.88,-21.34 7.16,-8.47 15.7,-12.63 19.07,-9.3 3.37,3.32 0.29,12.87 -6.87,21.33"
         style="fill:#ffffff;fill-opacity:1;fill-rule:evenodd;stroke:none"
         id="path358" />
      <path
         d="m 1331.3,2024.75 c -133.6,-61.28 -212.04,-304.85 -384.37,-267.54 -56.215,12.16 -115.078,120.75 -129.641,193.06 -21.137,105.02 -18.519,208.7 -9.191,301.48 2.699,26.87 5.961,52.81 9.367,77.62 -12.949,1.25 -25.965,3.17 -38.848,5.87 -14.996,-124.43 -58.945,-316.77 -19.285,-513.77 14.559,-72.3 73.41,-180.9 129.633,-193.07 59.223,-12.83 103.34,-7.04 135.615,10.26 53.99,13.26 129.8,40.19 196.34,74.39 2.58,24.99 6.46,49.42 12.22,73.07 3.3,13.51 94.01,226.14 98.16,238.63"
         style="fill:#1687d2;fill-opacity:1;fill-rule:evenodd;stroke:none"
         id="path360" />
      <path
         d="m 6993.96,3183.75 c -0.14,-5.01 -4.33,-8.97 -9.35,-8.83 -5.01,0.14 -8.97,4.33 -8.82,9.35 0.63,21.19 -2.42,41.45 -8.5,60.48 -14.7,46.04 -47.19,84.86 -87.87,112.6 -40.9,27.87 -89.94,44.48 -137.48,45.94 -22.76,0.69 -45.17,-2.1 -66.2,-8.82 -4.79,-1.51 -9.92,1.14 -11.43,5.94 -1.53,4.8 1.15,9.91 5.93,11.43 22.95,7.33 47.41,10.37 72.21,9.62 51.04,-1.56 103.53,-19.3 147.19,-49.06 43.89,-29.9 79,-72.01 95.02,-122.16 6.66,-20.86 10.01,-43.12 9.3,-66.49"
         style="fill:#d1d3d0;fill-opacity:1;fill-rule:evenodd;stroke:none"
         id="path362" />
      <path
         d="m 6978.77,3354.69 c 3.12,-3.94 2.45,-9.67 -1.49,-12.77 -3.95,-3.12 -9.67,-2.44 -12.78,1.5 -23.53,29.84 -50.5,52.86 -79.98,68.54 -29.25,15.56 -61.03,23.91 -94.41,24.51 -5.04,0.07 -9.06,4.22 -8.97,9.24 0.09,5.03 4.22,9.04 9.25,8.97 36.3,-0.65 70.87,-9.72 102.68,-26.65 31.69,-16.85 60.59,-41.5 85.7,-73.34"
         style="fill:#d1d3d0;fill-opacity:1;fill-rule:evenodd;stroke:none"
         id="path364" />
      <path
         d="m 4242.65,3825.21 c -0.15,-5.01 -4.34,-8.97 -9.35,-8.83 -5.01,0.14 -8.97,4.33 -8.83,9.35 0.65,21.19 -2.41,41.44 -8.48,60.47 -14.72,46.04 -47.2,84.87 -87.89,112.6 -40.89,27.88 -89.93,44.5 -137.47,45.94 -22.76,0.7 -45.18,-2.1 -66.21,-8.81 -4.78,-1.52 -9.91,1.14 -11.42,5.93 -1.53,4.8 1.13,9.92 5.93,11.44 22.95,7.33 47.41,10.38 72.2,9.61 51.04,-1.55 103.54,-19.29 147.2,-49.05 43.88,-29.9 78.99,-72.01 95.03,-122.16 6.65,-20.86 10,-43.12 9.29,-66.49"
         style="fill:#d1d3d0;fill-opacity:1;fill-rule:evenodd;stroke:none"
         id="path366" />
      <path
         d="m 4227.46,3996.15 c 3.13,-3.95 2.45,-9.67 -1.49,-12.78 -3.96,-3.11 -9.67,-2.43 -12.79,1.51 -23.52,29.83 -50.49,52.86 -79.97,68.54 -29.25,15.56 -61.03,23.92 -94.41,24.51 -5.04,0.07 -9.04,4.21 -8.97,9.24 0.08,5.03 4.22,9.04 9.24,8.96 36.31,-0.64 70.88,-9.71 102.69,-26.64 31.68,-16.86 60.58,-41.5 85.7,-73.34"
         style="fill:#d1d3d0;fill-opacity:1;fill-rule:evenodd;stroke:none"
         id="path368" />
      <path
         d="m 527.313,2727.47 c 1.167,-4.89 6.082,-7.89 10.964,-6.71 4.883,1.16 7.883,6.08 6.707,10.96 -5,20.6 -6.191,41.05 -4.171,60.93 4.89,48.09 28.667,92.78 62.757,128.31 34.266,35.71 78.813,62.09 125.035,73.32 22.122,5.38 44.641,7.27 66.59,5.04 5,-0.5 9.461,3.16 9.957,8.16 0.496,5.01 -3.148,9.46 -8.16,9.96 -23.965,2.44 -48.519,0.38 -72.644,-5.48 -49.614,-12.06 -97.321,-40.25 -133.903,-78.38 -36.761,-38.32 -62.437,-86.76 -67.757,-139.14 -2.219,-21.78 -0.895,-44.25 4.625,-66.97"
         style="fill:#d1d3d0;fill-opacity:1;fill-rule:evenodd;stroke:none"
         id="path370" />
      <path
         d="m 506.891,2897.86 c -2.227,-4.51 -0.391,-9.96 4.109,-12.2 4.504,-2.22 9.953,-0.38 12.188,4.12 16.871,34.05 38.507,62.14 64.109,83.56 25.418,21.27 54.793,36 87.336,43.46 4.894,1.12 7.965,6 6.855,10.9 -1.117,4.91 -5.996,7.97 -10.902,6.86 -35.391,-8.12 -67.332,-24.12 -94.973,-47.25 -27.515,-23.04 -50.718,-53.11 -68.722,-89.45"
         style="fill:#d1d3d0;fill-opacity:1;fill-rule:evenodd;stroke:none"
         id="path372" />
    </g>
  </g>
</svg>
